/* XPM */
static const char * bitmap_logo_xpm[] = {
"123 41 2 1",
" 	c #000000",
".	c #FCA400",
"...........................................................................................................................",
"...........................................................................................................................",
"...........................................................................................................................",
"...........................................................................................................................",
"...........................................................................................................................",
"............................    .........   ...............................................................................",
".............................   ........ ... ..............................................................................",
"..............................   ....... ... ..............................................................................",
"..............................   ........   ...............................................................................",
"..............................    ...... ... ..............................................................................",
"...............................   ...... ... ..............................................................................",
"...............................   .......   ...............................................................................",
"...............................   .........................................................................................",
"...............................   .........................................................................................",
"...............................   .........................................................................................",
"...............................   .........................................................................................",
"...................... ........   .........................................................................................",
".....................   ......    .........................................................................................",
"....................     .....   .......   ................................................................................",
".....................     ....   ...... ... ...............................................................................",
"......................    ...   ....... ..  ...............................................................................",
".......................  ...    ........  . ...............................................................................",
"............................   ............ ...............................................................................",
"....... ...................    ........... ................................................................................",
".......   ...............     ..........  .................................................................................",
".......    .............     ..............................................................................................",
".......       .......       ...............................................................................................",
".........                 .................................................................................................",
"...........             ........... ..... ............. ... .................... .... ...........    ...   ...   ..   .....",
".............         ............  .... . ............ ... .................... .... ............ .. . ... . ... .. ......",
"................................. . ... ... ............ . ...   .. ... . .  ..    .. .  ......... .. . ..... ...... ......",
"................................... ... ... ............. ... ..... ... .  .. .. ....  .. .     .. .. ..   ...   ... ......",
"................................... ... ... ............ . ...   .. ..  . ... .. .... ... ........ .. ..... ..... .. ......",
"................................... .... . ............ ... ..... ..  . . ... .. .. . ... ........ .. . ... . ... .. ......",
".................................     ... ............. ... .    ...... . ... ...  .. ... .......    ...   ...   ..   .....",
"................................................................... ... ...................................................",
"....................................................................   ....................................................",
"...........................................................................................................................",
"...........................................................................................................................",
"...........................................................................................................................",
"..........................................................................................................................."};
